<svg width="1022" height="140" viewBox="0 0 1022 140" fill="none" xmlns="http://www.w3.org/2000/svg">
<path d="M124.388 111.371C133.82 99.0909 138.862 84.0031 138.707 68.5198C138.552 53.0365 133.21 38.0523 123.534 25.9635L69.5 69.2117L124.388 111.371Z" fill="url(#paint0_linear_952_1434)"/>
<path d="M33.6002 10.0386C21.2416 17.5366 11.5408 28.7161 5.85929 42.0081C0.177828 55.3 -1.19924 70.0373 1.92138 84.1518C5.04199 98.266 12.5037 111.049 23.2592 120.707C34.0148 130.365 47.5244 136.413 61.8921 138.002C76.2598 139.591 90.7644 136.641 103.37 129.567C115.976 122.493 126.051 111.649 132.181 98.558C138.31 85.4663 140.187 70.7842 137.547 56.572C134.907 42.3597 127.884 29.3307 117.462 19.3133L94.485 43.2179C99.913 48.4362 103.572 55.2233 104.947 62.6268C106.322 70.0303 105.345 77.6785 102.152 84.4982C98.959 91.3178 93.711 96.967 87.1439 100.652C80.5771 104.337 73.0213 105.873 65.5369 105.045C58.0524 104.218 51.0149 101.067 45.4121 96.036C39.8093 91.0053 35.9223 84.3463 34.2967 76.9938C32.6711 69.6412 33.3885 61.9642 36.3481 55.0401C39.3077 48.116 44.3611 42.2924 50.799 38.3865L33.6002 10.0386Z" fill="white"/>
<path d="M124.297 26.9334C115.467 15.4885 103.275 7.09553 89.4323 2.93243C75.5895 -1.23071 60.7905 -0.95502 47.1124 3.72083C33.4342 8.39663 21.5633 17.2378 13.1657 29.0037C4.7681 40.7696 0.265297 54.8695 0.289157 69.3248C0.313017 83.7801 4.8624 97.8649 13.2988 109.603C21.7351 121.341 33.6351 130.143 47.3287 134.774C61.0222 139.405 75.822 139.632 89.651 135.423C103.48 131.214 115.644 122.781 124.436 111.307L98.117 91.1394C93.537 97.1169 87.2008 101.51 79.997 103.702C72.7931 105.895 65.0836 105.776 57.9503 103.364C50.817 100.952 44.618 96.3669 40.2233 90.252C35.8286 84.1374 33.4587 76.8002 33.4463 69.2701C33.4339 61.74 35.7795 54.395 40.154 48.2659C44.5285 42.1367 50.7123 37.5311 57.8376 35.0954C64.9629 32.6597 72.672 32.5161 79.883 34.6847C87.0941 36.8534 93.445 41.2255 98.045 47.1874L124.297 26.9334Z" fill="url(#paint1_radial_952_1434)"/>
<path d="M250.139 53.6172H236.733C236.217 50.7526 235.258 48.2318 233.854 46.0547C232.45 43.8776 230.732 42.0299 228.698 40.5117C226.664 38.9935 224.386 37.8477 221.866 37.0742C219.373 36.3008 216.724 35.9141 213.916 35.9141C208.846 35.9141 204.306 37.1888 200.295 39.7383C196.314 42.2878 193.163 46.026 190.842 50.9531C188.551 55.8802 187.405 61.8958 187.405 69C187.405 76.1615 188.551 82.2057 190.842 87.1328C193.163 92.0599 196.328 95.7839 200.338 98.3047C204.349 100.826 208.86 102.086 213.873 102.086C216.652 102.086 219.288 101.714 221.78 100.969C224.301 100.195 226.578 99.0638 228.612 97.5742C230.646 96.0846 232.364 94.2656 233.768 92.1172C235.2 89.9401 236.189 87.4479 236.733 84.6406L250.139 84.6836C249.423 89.0091 248.034 92.9909 245.971 96.6289C243.937 100.238 241.316 103.361 238.108 105.996C234.928 108.603 231.29 110.622 227.194 112.055C223.097 113.487 218.629 114.203 213.788 114.203C206.168 114.203 199.379 112.398 193.42 108.789C187.462 105.151 182.764 99.9518 179.327 93.1914C175.918 86.431 174.213 78.3672 174.213 69C174.213 59.6042 175.932 51.5404 179.37 44.8086C182.807 38.0482 187.505 32.8633 193.463 29.2539C199.422 25.6159 206.196 23.7969 213.788 23.7969C218.457 23.7969 222.811 24.4701 226.85 25.8164C230.918 27.1341 234.57 29.082 237.807 31.6602C241.044 34.2096 243.722 37.332 245.842 41.0273C247.962 44.694 249.394 48.8906 250.139 53.6172ZM269.723 137.75C267.804 137.75 266.056 137.592 264.481 137.277C262.905 136.991 261.731 136.676 260.957 136.332L264.051 125.805C266.4 126.435 268.491 126.707 270.325 126.621C272.158 126.535 273.776 125.848 275.18 124.559C276.612 123.27 277.873 121.164 278.961 118.242L280.551 113.859L256.403 47H270.153L286.867 98.2187H287.555L304.27 47H318.063L290.864 121.809C289.603 125.246 287.999 128.154 286.051 130.531C284.103 132.938 281.783 134.742 279.09 135.945C276.397 137.148 273.275 137.75 269.723 137.75ZM327.538 113V25H340.386V57.6992H341.159C341.904 56.3242 342.978 54.7344 344.382 52.9297C345.786 51.125 347.734 49.5495 350.226 48.2031C352.718 46.8281 356.012 46.1406 360.109 46.1406C365.437 46.1406 370.192 47.487 374.374 50.1797C378.556 52.8724 381.836 56.7539 384.214 61.8242C386.62 66.8945 387.823 72.9961 387.823 80.1289C387.823 87.2617 386.635 93.3776 384.257 98.4766C381.879 103.547 378.614 107.457 374.46 110.207C370.306 112.928 365.566 114.289 360.237 114.289C356.227 114.289 352.947 113.616 350.398 112.27C347.877 110.923 345.9 109.348 344.468 107.543C343.036 105.738 341.933 104.134 341.159 102.73H340.085V113H327.538ZM340.128 80C340.128 84.6406 340.801 88.7083 342.148 92.2031C343.494 95.6979 345.442 98.4336 347.991 100.41C350.541 102.358 353.663 103.332 357.359 103.332C361.197 103.332 364.405 102.315 366.984 100.281C369.562 98.2187 371.51 95.4258 372.827 91.9023C374.174 88.3789 374.847 84.4115 374.847 80C374.847 75.6458 374.188 71.7357 372.87 68.2695C371.581 64.8034 369.633 62.0677 367.027 60.0625C364.448 58.0573 361.226 57.0547 357.359 57.0547C353.635 57.0547 350.484 58.0143 347.905 59.9336C345.356 61.8529 343.422 64.5312 342.105 67.9687C340.787 71.4062 340.128 75.4167 340.128 80ZM426.421 114.332C420.233 114.332 414.834 112.914 410.222 110.078C405.61 107.242 402.029 103.275 399.48 98.1758C396.93 93.0768 395.655 87.1185 395.655 80.3008C395.655 73.4544 396.93 67.4674 399.48 62.3398C402.029 57.2122 405.61 53.2305 410.222 50.3945C414.834 47.5586 420.233 46.1406 426.421 46.1406C432.608 46.1406 438.008 47.5586 442.62 50.3945C447.232 53.2305 450.813 57.2122 453.362 62.3398C455.912 67.4674 457.187 73.4544 457.187 80.3008C457.187 87.1185 455.912 93.0768 453.362 98.1758C450.813 103.275 447.232 107.242 442.62 110.078C438.008 112.914 432.608 114.332 426.421 114.332ZM426.464 103.547C430.474 103.547 433.797 102.487 436.433 100.367C439.068 98.2474 441.016 95.4258 442.276 91.9023C443.565 88.3789 444.21 84.4974 444.21 80.2578C444.21 76.0469 443.565 72.1797 442.276 68.6562C441.016 65.1042 439.068 62.2539 436.433 60.1055C433.797 57.957 430.474 56.8828 426.464 56.8828C422.425 56.8828 419.073 57.957 416.409 60.1055C413.774 62.2539 411.812 65.1042 410.523 68.6562C409.262 72.1797 408.632 76.0469 408.632 80.2578C408.632 84.4974 409.262 88.3789 410.523 91.9023C411.812 95.4258 413.774 98.2474 416.409 100.367C419.073 102.487 422.425 103.547 426.464 103.547ZM467.897 113V47H480.315V57.4844H481.003C482.206 53.9323 484.326 51.1393 487.362 49.1055C490.427 47.043 493.893 46.0117 497.761 46.0117C498.563 46.0117 499.508 46.0404 500.597 46.0977C501.714 46.1549 502.588 46.2266 503.218 46.3125V58.6016C502.702 58.4583 501.785 58.3008 500.468 58.1289C499.15 57.9284 497.832 57.8281 496.515 57.8281C493.478 57.8281 490.771 58.4727 488.393 59.7617C486.045 61.0221 484.183 62.7839 482.808 65.0469C481.433 67.2812 480.745 69.8307 480.745 72.6953V113H467.897ZM536.014 139.125C530.772 139.125 526.261 138.438 522.479 137.063C518.727 135.688 515.662 133.868 513.284 131.605C510.906 129.342 509.13 126.865 507.956 124.172L518.999 119.617C519.772 120.878 520.804 122.21 522.093 123.613C523.41 125.046 525.186 126.263 527.421 127.266C529.684 128.268 532.591 128.77 536.143 128.77C541.013 128.77 545.038 127.581 548.218 125.203C551.397 122.854 552.987 119.102 552.987 113.945V100.969H552.171C551.397 102.372 550.28 103.934 548.819 105.652C547.387 107.371 545.41 108.861 542.889 110.121C540.369 111.382 537.089 112.012 533.05 112.012C527.836 112.012 523.138 110.794 518.956 108.359C514.802 105.896 511.508 102.272 509.073 97.4883C506.667 92.6758 505.464 86.7604 505.464 79.7422C505.464 72.724 506.652 66.7083 509.03 61.6953C511.436 56.6823 514.731 52.8437 518.913 50.1797C523.095 47.487 527.836 46.1406 533.136 46.1406C537.232 46.1406 540.541 46.8281 543.061 48.2031C545.582 49.5495 547.544 51.125 548.948 52.9297C550.38 54.7344 551.483 56.3242 552.257 57.6992H553.202V47H565.792V114.461C565.792 120.133 564.474 124.788 561.839 128.426C559.203 132.064 555.637 134.757 551.139 136.504C546.671 138.251 541.629 139.125 536.014 139.125ZM535.886 101.355C539.581 101.355 542.703 100.496 545.253 98.7773C547.831 97.0299 549.779 94.5378 551.096 91.3008C552.443 88.0352 553.116 84.125 553.116 79.5703C553.116 75.1302 552.457 71.2201 551.139 67.8398C549.822 64.4596 547.888 61.8242 545.339 59.9336C542.789 58.0143 539.638 57.0547 535.886 57.0547C532.018 57.0547 528.796 58.0573 526.218 60.0625C523.639 62.0391 521.692 64.7318 520.374 68.1406C519.085 71.5495 518.44 75.3594 518.44 79.5703C518.44 83.8958 519.099 87.6914 520.417 90.957C521.735 94.2227 523.682 96.7721 526.261 98.6055C528.867 100.439 532.076 101.355 535.886 101.355ZM608.912 113H580.424V25H609.814C618.437 25 625.841 26.7617 632.029 30.2852C638.216 33.7799 642.957 38.8073 646.252 45.3672C649.575 51.8984 651.236 59.7331 651.236 68.8711C651.236 78.0378 649.56 85.9154 646.209 92.5039C642.886 99.0924 638.073 104.163 631.771 107.715C625.469 111.238 617.849 113 608.912 113ZM593.701 101.398H608.181C614.884 101.398 620.456 100.138 624.896 97.6172C629.336 95.0677 632.659 91.3867 634.865 86.5742C637.071 81.7331 638.174 75.832 638.174 68.8711C638.174 61.9674 637.071 56.1094 634.865 51.2969C632.688 46.4844 629.437 42.832 625.111 40.3398C620.786 37.8477 615.414 36.6016 608.998 36.6016H593.701V101.398ZM664.117 113V25H696.343C702.588 25 707.759 26.0312 711.855 28.0937C715.951 30.1276 719.016 32.8919 721.05 36.3867C723.084 39.8529 724.101 43.763 724.101 48.1172C724.101 51.7839 723.428 54.8776 722.082 57.3984C720.735 59.8906 718.931 61.8958 716.668 63.4141C714.433 64.9036 711.97 65.9922 709.277 66.6797V67.5391C712.199 67.6823 715.049 68.6276 717.828 70.375C720.635 72.0937 722.955 74.543 724.789 77.7227C726.622 80.9023 727.539 84.7695 727.539 89.3242C727.539 93.8216 726.479 97.8607 724.359 101.441C722.268 104.993 719.031 107.815 714.648 109.906C710.265 111.969 704.665 113 697.847 113H664.117ZM677.394 101.613H696.558C702.918 101.613 707.472 100.382 710.222 97.918C712.972 95.4544 714.347 92.375 714.347 88.6797C714.347 85.901 713.645 83.3516 712.242 81.0312C710.838 78.7109 708.833 76.8633 706.226 75.4883C703.648 74.1133 700.583 73.4258 697.031 73.4258H677.394V101.613ZM677.394 63.0703H695.183C698.162 63.0703 700.841 62.4974 703.218 61.3516C705.625 60.2057 707.53 58.6016 708.933 56.5391C710.365 54.4479 711.082 51.9844 711.082 49.1484C711.082 45.5104 709.807 42.4596 707.257 39.9961C704.708 37.5325 700.798 36.3008 695.527 36.3008H677.394V63.0703Z" fill="white"/>
<path d="M782.469 113H756.688V25H784.016C792.409 25 799.585 26.7474 805.543 30.2422C811.53 33.737 816.113 38.75 819.293 45.2812C822.473 51.8125 824.063 59.6471 824.063 68.7852C824.063 78.0091 822.43 85.9297 819.164 92.5469C815.927 99.1354 811.201 104.191 804.984 107.715C798.797 111.238 791.292 113 782.469 113ZM764.723 105.781H781.996C789.559 105.781 795.889 104.292 800.988 101.312C806.087 98.3333 809.911 94.0794 812.461 88.5508C815.01 83.0221 816.285 76.4336 816.285 68.7852C816.257 61.194 814.996 54.6628 812.504 49.1914C810.04 43.72 806.374 39.5234 801.504 36.6016C796.663 33.6797 790.676 32.2187 783.543 32.2187H764.723V105.781ZM863.971 114.375C858.27 114.375 853.228 112.928 848.846 110.035C844.491 107.142 841.083 103.146 838.619 98.0469C836.155 92.9193 834.924 87.0039 834.924 80.3008C834.924 73.5404 836.155 67.5964 838.619 62.4687C841.083 57.3125 844.491 53.3021 848.846 50.4375C853.228 47.5443 858.27 46.0977 863.971 46.0977C869.671 46.0977 874.698 47.5443 879.053 50.4375C883.407 53.3307 886.816 57.3411 889.279 62.4687C891.771 67.5964 893.017 73.5404 893.017 80.3008C893.017 87.0039 891.786 92.9193 889.322 98.0469C886.859 103.146 883.435 107.142 879.053 110.035C874.698 112.928 869.671 114.375 863.971 114.375ZM863.971 107.371C868.554 107.371 872.435 106.139 875.615 103.676C878.795 101.212 881.201 97.9323 882.834 93.8359C884.495 89.7396 885.326 85.2279 885.326 80.3008C885.326 75.3737 884.495 70.8477 882.834 66.7227C881.201 62.5977 878.795 59.2891 875.615 56.7969C872.435 54.3047 868.554 53.0586 863.971 53.0586C859.416 53.0586 855.534 54.3047 852.326 56.7969C849.146 59.2891 846.726 62.5977 845.064 66.7227C843.432 70.8477 842.615 75.3737 842.615 80.3008C842.615 85.2279 843.432 89.7396 845.064 93.8359C846.726 97.9323 849.146 101.212 852.326 103.676C855.506 106.139 859.387 107.371 863.971 107.371ZM931.959 114.375C926.058 114.375 920.916 112.9 916.533 109.949C912.179 106.999 908.799 102.96 906.392 97.832C903.986 92.7044 902.783 86.8607 902.783 80.3008C902.783 73.6836 904 67.7969 906.435 62.6406C908.899 57.4844 912.308 53.4453 916.662 50.5234C921.016 47.5729 926.072 46.0977 931.83 46.0977C936.241 46.0977 940.237 46.957 943.818 48.6758C947.399 50.3659 950.349 52.7578 952.67 55.8516C955.019 58.9167 956.494 62.4974 957.095 66.5937H949.361C948.559 62.8698 946.625 59.6901 943.56 57.0547C940.524 54.3906 936.657 53.0586 931.959 53.0586C927.748 53.0586 924.024 54.2044 920.787 56.4961C917.55 58.7591 915.015 61.9245 913.181 65.9922C911.377 70.0312 910.474 74.7148 910.474 80.043C910.474 85.3997 911.362 90.1406 913.138 94.2656C914.914 98.362 917.407 101.57 920.615 103.891C923.852 106.211 927.633 107.371 931.959 107.371C934.881 107.371 937.545 106.827 939.951 105.738C942.386 104.621 944.42 103.046 946.053 101.012C947.714 98.9779 948.831 96.5573 949.404 93.75H957.138C956.566 97.7318 955.148 101.284 952.885 104.406C950.65 107.5 947.743 109.935 944.162 111.711C940.61 113.487 936.542 114.375 931.959 114.375ZM1014.24 61.4805L1007.24 63.457C1006.55 61.4805 1005.58 59.6901 1004.32 58.0859C1003.06 56.4818 1001.41 55.207 999.378 54.2617C997.372 53.3164 994.88 52.8437 991.901 52.8437C987.432 52.8437 983.766 53.9036 980.901 56.0234C978.036 58.1432 976.604 60.8789 976.604 64.2305C976.604 67.0664 977.578 69.3724 979.526 71.1484C981.503 72.8958 984.539 74.2852 988.635 75.3164L998.604 77.7656C1004.13 79.112 1008.27 81.2461 1011.02 84.168C1013.8 87.0898 1015.19 90.7565 1015.19 95.168C1015.19 98.8919 1014.16 102.201 1012.1 105.094C1010.03 107.987 1007.15 110.264 1003.46 111.926C999.793 113.559 995.539 114.375 990.698 114.375C984.253 114.375 978.939 112.928 974.756 110.035C970.574 107.113 967.896 102.902 966.721 97.4023L974.069 95.5977C975.014 99.5221 976.862 102.487 979.612 104.492C982.391 106.497 986.043 107.5 990.569 107.5C995.639 107.5 999.693 106.368 1002.73 104.105C1005.77 101.814 1007.28 98.9492 1007.28 95.5117C1007.28 92.8477 1006.4 90.6133 1004.62 88.8086C1002.84 86.9753 1000.15 85.6289 996.542 84.7695L985.756 82.1914C980.027 80.8164 975.788 78.6393 973.038 75.6602C970.288 72.681 968.913 68.9857 968.913 64.5742C968.913 60.9362 969.901 57.7422 971.878 54.9922C973.854 52.2135 976.575 50.0365 980.042 48.4609C983.508 46.8854 987.461 46.0977 991.901 46.0977C997.945 46.0977 1002.77 47.4727 1006.38 50.2227C1010.02 52.944 1012.64 56.6966 1014.24 61.4805Z" fill="white"/>
<defs>
<linearGradient id="paint0_linear_952_1434" x1="138.984" y1="69.3518" x2="0.0161884" y2="69.0716" gradientUnits="userSpaceOnUse">
<stop offset="0.204805" stop-color="#217684"/>
<stop offset="0.549593" stop-color="#56D3DB"/>
</linearGradient>
<radialGradient id="paint1_radial_952_1434" cx="0" cy="0" r="1" gradientUnits="userSpaceOnUse" gradientTransform="translate(189.533 52.727) rotate(113.427) scale(195.748 195.748)">
<stop stop-color="#38C3EE"/>
<stop offset="0.450649" stop-color="#69F1F6"/>
<stop offset="0.932699" stop-color="#207D8B"/>
</radialGradient>
</defs>
</svg>
