<svg width="1022" height="140" viewBox="0 0 1022 140" fill="none" xmlns="http://www.w3.org/2000/svg">
<path d="M249.85 53.6172H236.444C235.928 50.7526 234.968 48.2318 233.565 46.0547C232.161 43.8776 230.442 42.0299 228.409 40.5117C226.375 38.9935 224.097 37.8477 221.577 37.0742C219.084 36.3008 216.435 35.9141 213.627 35.9141C208.557 35.9141 204.017 37.1888 200.006 39.7383C196.024 42.2878 192.873 46.026 190.553 50.9531C188.261 55.8802 187.116 61.8958 187.116 69C187.116 76.1615 188.261 82.2057 190.553 87.1328C192.873 92.0599 196.039 95.7839 200.049 98.3047C204.06 100.826 208.571 102.086 213.584 102.086C216.363 102.086 218.998 101.714 221.491 100.969C224.011 100.195 226.289 99.0638 228.323 97.5742C230.357 96.0846 232.075 94.2656 233.479 92.1172C234.911 89.9401 235.899 87.4479 236.444 84.6406L249.85 84.6836C249.134 89.0091 247.745 92.9909 245.682 96.6289C243.648 100.238 241.027 103.361 237.819 105.996C234.639 108.603 231.001 110.622 226.905 112.055C222.808 113.487 218.34 114.203 213.498 114.203C205.879 114.203 199.09 112.398 193.131 108.789C187.173 105.151 182.475 99.9518 179.038 93.1914C175.629 86.431 173.924 78.3672 173.924 69C173.924 59.6042 175.643 51.5404 179.08 44.8086C182.518 38.0482 187.216 32.8633 193.174 29.2539C199.133 25.6159 205.907 23.7969 213.498 23.7969C218.168 23.7969 222.522 24.4701 226.561 25.8164C230.629 27.1341 234.281 29.082 237.518 31.6602C240.755 34.2096 243.433 37.332 245.553 41.0273C247.673 44.694 249.105 48.8906 249.85 53.6172ZM269.434 137.75C267.515 137.75 265.767 137.592 264.192 137.277C262.616 136.991 261.442 136.676 260.668 136.332L263.762 125.805C266.111 126.435 268.202 126.707 270.035 126.621C271.869 126.535 273.487 125.848 274.891 124.559C276.323 123.27 277.584 121.164 278.672 118.242L280.262 113.859L256.114 47H269.864L286.578 98.2187H287.266L303.981 47H317.774L290.575 121.809C289.314 125.246 287.71 128.154 285.762 130.531C283.814 132.938 281.494 134.742 278.801 135.945C276.108 137.148 272.986 137.75 269.434 137.75ZM327.249 113V25H340.097V57.6992H340.87C341.615 56.3242 342.689 54.7344 344.093 52.9297C345.497 51.125 347.445 49.5495 349.937 48.2031C352.429 46.8281 355.723 46.1406 359.82 46.1406C365.148 46.1406 369.903 47.487 374.085 50.1797C378.267 52.8724 381.547 56.7539 383.925 61.8242C386.331 66.8945 387.534 72.9961 387.534 80.1289C387.534 87.2617 386.346 93.3776 383.968 98.4766C381.59 103.547 378.325 107.457 374.171 110.207C370.017 112.928 365.277 114.289 359.948 114.289C355.938 114.289 352.658 113.616 350.109 112.27C347.588 110.923 345.611 109.348 344.179 107.543C342.747 105.738 341.644 104.134 340.87 102.73H339.796V113H327.249ZM339.839 80C339.839 84.6406 340.512 88.7083 341.859 92.2031C343.205 95.6979 345.153 98.4336 347.702 100.41C350.252 102.358 353.374 103.332 357.07 103.332C360.908 103.332 364.116 102.315 366.695 100.281C369.273 98.2187 371.221 95.4258 372.538 91.9023C373.885 88.3789 374.558 84.4115 374.558 80C374.558 75.6458 373.899 71.7357 372.581 68.2695C371.292 64.8034 369.344 62.0677 366.737 60.0625C364.159 58.0573 360.937 57.0547 357.07 57.0547C353.346 57.0547 350.195 58.0143 347.616 59.9336C345.067 61.8529 343.133 64.5312 341.816 67.9687C340.498 71.4062 339.839 75.4167 339.839 80ZM426.132 114.332C419.944 114.332 414.545 112.914 409.933 110.078C405.321 107.242 401.74 103.275 399.19 98.1758C396.641 93.0768 395.366 87.1185 395.366 80.3008C395.366 73.4544 396.641 67.4674 399.19 62.3398C401.74 57.2122 405.321 53.2305 409.933 50.3945C414.545 47.5586 419.944 46.1406 426.132 46.1406C432.319 46.1406 437.719 47.5586 442.331 50.3945C446.943 53.2305 450.524 57.2122 453.073 62.3398C455.623 67.4674 456.898 73.4544 456.898 80.3008C456.898 87.1185 455.623 93.0768 453.073 98.1758C450.524 103.275 446.943 107.242 442.331 110.078C437.719 112.914 432.319 114.332 426.132 114.332ZM426.175 103.547C430.185 103.547 433.508 102.487 436.144 100.367C438.779 98.2474 440.727 95.4258 441.987 91.9023C443.276 88.3789 443.921 84.4974 443.921 80.2578C443.921 76.0469 443.276 72.1797 441.987 68.6562C440.727 65.1042 438.779 62.2539 436.144 60.1055C433.508 57.957 430.185 56.8828 426.175 56.8828C422.136 56.8828 418.784 57.957 416.12 60.1055C413.485 62.2539 411.523 65.1042 410.233 68.6562C408.973 72.1797 408.343 76.0469 408.343 80.2578C408.343 84.4974 408.973 88.3789 410.233 91.9023C411.523 95.4258 413.485 98.2474 416.12 100.367C418.784 102.487 422.136 103.547 426.175 103.547ZM467.608 113V47H480.026V57.4844H480.714C481.917 53.9323 484.037 51.1393 487.073 49.1055C490.138 47.043 493.604 46.0117 497.472 46.0117C498.274 46.0117 499.219 46.0404 500.308 46.0977C501.425 46.1549 502.298 46.2266 502.929 46.3125V58.6016C502.413 58.4583 501.496 58.3008 500.179 58.1289C498.861 57.9284 497.543 57.8281 496.226 57.8281C493.189 57.8281 490.482 58.4727 488.104 59.7617C485.755 61.0221 483.893 62.7839 482.518 65.0469C481.143 67.2812 480.456 69.8307 480.456 72.6953V113H467.608ZM535.725 139.125C530.483 139.125 525.971 138.438 522.19 137.063C518.438 135.688 515.373 133.868 512.995 131.605C510.617 129.342 508.841 126.865 507.667 124.172L518.71 119.617C519.483 120.878 520.514 122.21 521.804 123.613C523.121 125.046 524.897 126.263 527.132 127.266C529.395 128.268 532.302 128.77 535.854 128.77C540.724 128.77 544.749 127.581 547.929 125.203C551.108 122.854 552.698 119.102 552.698 113.945V100.969H551.882C551.108 102.372 549.991 103.934 548.53 105.652C547.098 107.371 545.121 108.861 542.6 110.121C540.08 111.382 536.8 112.012 532.761 112.012C527.547 112.012 522.849 110.794 518.667 108.359C514.513 105.896 511.219 102.272 508.784 97.4883C506.378 92.6758 505.175 86.7604 505.175 79.7422C505.175 72.724 506.363 66.7083 508.741 61.6953C511.147 56.6823 514.442 52.8437 518.624 50.1797C522.806 47.487 527.547 46.1406 532.846 46.1406C536.943 46.1406 540.251 46.8281 542.772 48.2031C545.293 49.5495 547.255 51.125 548.659 52.9297C550.091 54.7344 551.194 56.3242 551.968 57.6992H552.913V47H565.503V114.461C565.503 120.133 564.185 124.788 561.55 128.426C558.914 132.064 555.348 134.757 550.85 136.504C546.382 138.251 541.34 139.125 535.725 139.125ZM535.596 101.355C539.292 101.355 542.414 100.496 544.964 98.7773C547.542 97.0299 549.49 94.5378 550.807 91.3008C552.154 88.0352 552.827 84.125 552.827 79.5703C552.827 75.1302 552.168 71.2201 550.85 67.8398C549.533 64.4596 547.599 61.8242 545.05 59.9336C542.5 58.0143 539.349 57.0547 535.596 57.0547C531.729 57.0547 528.507 58.0573 525.929 60.0625C523.35 62.0391 521.402 64.7318 520.085 68.1406C518.796 71.5495 518.151 75.3594 518.151 79.5703C518.151 83.8958 518.81 87.6914 520.128 90.957C521.445 94.2227 523.393 96.7721 525.971 98.6055C528.578 100.439 531.787 101.355 535.596 101.355ZM608.623 113H580.134V25H609.525C618.147 25 625.552 26.7617 631.74 30.2852C637.927 33.7799 642.668 38.8073 645.963 45.3672C649.286 51.8984 650.947 59.7331 650.947 68.8711C650.947 78.0378 649.271 85.9154 645.92 92.5039C642.597 99.0924 637.784 104.163 631.482 107.715C625.18 111.238 617.56 113 608.623 113ZM593.412 101.398H607.892C614.595 101.398 620.167 100.138 624.607 97.6172C629.047 95.0677 632.37 91.3867 634.576 86.5742C636.782 81.7331 637.884 75.832 637.884 68.8711C637.884 61.9674 636.782 56.1094 634.576 51.2969C632.399 46.4844 629.147 42.832 624.822 40.3398C620.496 37.8477 615.125 36.6016 608.709 36.6016H593.412V101.398ZM663.828 113V25H696.054C702.299 25 707.47 26.0312 711.566 28.0937C715.662 30.1276 718.727 32.8919 720.761 36.3867C722.795 39.8529 723.812 43.763 723.812 48.1172C723.812 51.7839 723.139 54.8776 721.793 57.3984C720.446 59.8906 718.642 61.8958 716.378 63.4141C714.144 64.9036 711.681 65.9922 708.988 66.6797V67.5391C711.91 67.6823 714.76 68.6276 717.539 70.375C720.346 72.0937 722.666 74.543 724.5 77.7227C726.333 80.9023 727.25 84.7695 727.25 89.3242C727.25 93.8216 726.19 97.8607 724.07 101.441C721.979 104.993 718.742 107.815 714.359 109.906C709.976 111.969 704.376 113 697.558 113H663.828ZM677.105 101.613H696.269C702.628 101.613 707.183 100.382 709.933 97.918C712.683 95.4544 714.058 92.375 714.058 88.6797C714.058 85.901 713.356 83.3516 711.953 81.0312C710.549 78.7109 708.544 76.8633 705.937 75.4883C703.359 74.1133 700.294 73.4258 696.742 73.4258H677.105V101.613ZM677.105 63.0703H694.894C697.873 63.0703 700.552 62.4974 702.929 61.3516C705.336 60.2057 707.24 58.6016 708.644 56.5391C710.076 54.4479 710.793 51.9844 710.793 49.1484C710.793 45.5104 709.518 42.4596 706.968 39.9961C704.419 37.5325 700.509 36.3008 695.238 36.3008H677.105V63.0703Z" fill="black"/>
<path d="M782.18 113H756.398V25H783.727C792.12 25 799.296 26.7474 805.254 30.2422C811.241 33.737 815.824 38.75 819.004 45.2812C822.184 51.8125 823.773 59.6471 823.773 68.7852C823.773 78.0091 822.141 85.9297 818.875 92.5469C815.638 99.1354 810.911 104.191 804.695 107.715C798.508 111.238 791.003 113 782.18 113ZM764.434 105.781H781.707C789.27 105.781 795.6 104.292 800.699 101.312C805.798 98.3333 809.622 94.0794 812.172 88.5508C814.721 83.0221 815.996 76.4336 815.996 68.7852C815.967 61.194 814.707 54.6628 812.215 49.1914C809.751 43.72 806.085 39.5234 801.215 36.6016C796.374 33.6797 790.387 32.2187 783.254 32.2187H764.434V105.781ZM863.682 114.375C857.981 114.375 852.939 112.928 848.557 110.035C844.202 107.142 840.794 103.146 838.33 98.0469C835.866 92.9193 834.635 87.0039 834.635 80.3008C834.635 73.5404 835.866 67.5964 838.33 62.4687C840.794 57.3125 844.202 53.3021 848.557 50.4375C852.939 47.5443 857.981 46.0977 863.682 46.0977C869.382 46.0977 874.409 47.5443 878.764 50.4375C883.118 53.3307 886.527 57.3411 888.99 62.4687C891.482 67.5964 892.728 73.5404 892.728 80.3008C892.728 87.0039 891.497 92.9193 889.033 98.0469C886.57 103.146 883.146 107.142 878.764 110.035C874.409 112.928 869.382 114.375 863.682 114.375ZM863.682 107.371C868.265 107.371 872.146 106.139 875.326 103.676C878.506 101.212 880.912 97.9323 882.545 93.8359C884.206 89.7396 885.037 85.2279 885.037 80.3008C885.037 75.3737 884.206 70.8477 882.545 66.7227C880.912 62.5977 878.506 59.2891 875.326 56.7969C872.146 54.3047 868.265 53.0586 863.682 53.0586C859.127 53.0586 855.245 54.3047 852.037 56.7969C848.857 59.2891 846.437 62.5977 844.775 66.7227C843.142 70.8477 842.326 75.3737 842.326 80.3008C842.326 85.2279 843.142 89.7396 844.775 93.8359C846.437 97.9323 848.857 101.212 852.037 103.676C855.217 106.139 859.098 107.371 863.682 107.371ZM931.67 114.375C925.769 114.375 920.627 112.9 916.244 109.949C911.89 106.999 908.51 102.96 906.103 97.832C903.697 92.7044 902.494 86.8607 902.494 80.3008C902.494 73.6836 903.711 67.7969 906.146 62.6406C908.61 57.4844 912.019 53.4453 916.373 50.5234C920.727 47.5729 925.783 46.0977 931.541 46.0977C935.952 46.0977 939.948 46.957 943.529 48.6758C947.11 50.3659 950.06 52.7578 952.381 55.8516C954.73 58.9167 956.205 62.4974 956.806 66.5937H949.072C948.27 62.8698 946.336 59.6901 943.271 57.0547C940.235 54.3906 936.368 53.0586 931.67 53.0586C927.459 53.0586 923.735 54.2044 920.498 56.4961C917.261 58.7591 914.726 61.9245 912.892 65.9922C911.088 70.0312 910.185 74.7148 910.185 80.043C910.185 85.3997 911.073 90.1406 912.849 94.2656C914.625 98.362 917.118 101.57 920.326 103.891C923.563 106.211 927.344 107.371 931.67 107.371C934.592 107.371 937.256 106.827 939.662 105.738C942.097 104.621 944.131 103.046 945.763 101.012C947.425 98.9779 948.542 96.5573 949.115 93.75H956.849C956.276 97.7318 954.858 101.284 952.595 104.406C950.361 107.5 947.454 109.935 943.873 111.711C940.321 113.487 936.253 114.375 931.67 114.375ZM1013.96 61.4805L1006.95 63.457C1006.26 61.4805 1005.29 59.6901 1004.03 58.0859C1002.77 56.4818 1001.12 55.207 999.089 54.2617C997.083 53.3164 994.591 52.8437 991.612 52.8437C987.143 52.8437 983.477 53.9036 980.612 56.0234C977.747 58.1432 976.315 60.8789 976.315 64.2305C976.315 67.0664 977.289 69.3724 979.237 71.1484C981.214 72.8958 984.25 74.2852 988.346 75.3164L998.315 77.7656C1003.84 79.112 1007.98 81.2461 1010.73 84.168C1013.51 87.0898 1014.9 90.7565 1014.9 95.168C1014.9 98.8919 1013.87 102.201 1011.81 105.094C1009.74 107.987 1006.87 110.264 1003.17 111.926C999.504 113.559 995.25 114.375 990.409 114.375C983.964 114.375 978.65 112.928 974.467 110.035C970.285 107.113 967.607 102.902 966.432 97.4023L973.78 95.5977C974.725 99.5221 976.573 102.487 979.323 104.492C982.102 106.497 985.754 107.5 990.28 107.5C995.35 107.5 999.404 106.368 1002.44 104.105C1005.48 101.814 1006.99 98.9492 1006.99 95.5117C1006.99 92.8477 1006.11 90.6133 1004.33 88.8086C1002.55 86.9753 999.862 85.6289 996.253 84.7695L985.467 82.1914C979.738 80.8164 975.499 78.6393 972.749 75.6602C969.999 72.681 968.624 68.9857 968.624 64.5742C968.624 60.9362 969.612 57.7422 971.589 54.9922C973.565 52.2135 976.286 50.0365 979.753 48.4609C983.219 46.8854 987.172 46.0977 991.612 46.0977C997.656 46.0977 1002.48 47.4727 1006.09 50.2227C1009.73 52.944 1012.35 56.6966 1013.96 61.4805Z" fill="black"/>
<path d="M124.099 111.371C133.531 99.091 138.573 84.0032 138.418 68.5199C138.263 53.0366 132.921 38.0524 123.245 25.9636L69.2109 69.2118L124.099 111.371Z" fill="url(#paint0_linear_952_1435)"/>
<path d="M33.3113 10.0386C20.9527 17.5367 11.2519 28.7161 5.57044 42.008C-0.111021 55.3 -1.48809 70.0373 1.63253 84.1518C4.75314 98.266 12.2148 111.049 22.9703 120.707C33.7259 130.365 47.2355 136.413 61.6032 138.002C75.9709 139.591 90.4755 136.641 103.081 129.567C115.687 122.493 125.762 111.649 131.892 98.558C138.021 85.4663 139.898 70.7842 137.258 56.572C134.618 42.3597 127.595 29.3307 117.173 19.3133L94.1961 43.2179C99.6241 48.4362 103.283 55.2233 104.658 62.6268C106.033 70.0303 105.056 77.6785 101.863 84.4982C98.6701 91.3178 93.4221 96.967 86.855 100.652C80.2882 104.337 72.7324 105.873 65.248 105.045C57.7635 104.218 50.726 101.067 45.1232 96.036C39.5204 91.0053 35.6334 84.3463 34.0078 76.9938C32.3822 69.6412 33.0996 61.9642 36.0592 55.0401C39.0188 48.116 44.0722 42.2924 50.5101 38.3865L33.3113 10.0386Z" fill="#131728"/>
<path d="M124.008 26.9334C115.178 15.4885 102.986 7.09553 89.1432 2.93243C75.3004 -1.23071 60.5014 -0.95502 46.8233 3.72083C33.1451 8.39663 21.2742 17.2378 12.8766 29.0037C4.47904 40.7696 -0.0237657 54.8695 9.4336e-05 69.3248C0.0239543 83.7801 4.57333 97.8649 13.0097 109.603C21.446 121.341 33.346 130.143 47.0396 134.774C60.7331 139.405 75.5329 139.632 89.3619 135.423C103.191 131.214 115.355 122.781 124.147 111.307L97.8279 91.1394C93.2479 97.1169 86.9117 101.51 79.7079 103.702C72.504 105.895 64.7945 105.776 57.6612 103.364C50.5279 100.952 44.3289 96.3669 39.9342 90.252C35.5395 84.1374 33.1696 76.8002 33.1572 69.2701C33.1448 61.74 35.4904 54.395 39.8649 48.2659C44.2394 42.1367 50.4232 37.5311 57.5485 35.0954C64.6738 32.6597 72.3829 32.5161 79.5939 34.6847C86.805 36.8534 93.1559 41.2255 97.7559 47.1874L124.008 26.9334Z" fill="url(#paint1_radial_952_1435)"/>
<defs>
<linearGradient id="paint0_linear_952_1435" x1="138.695" y1="69.3519" x2="-0.272874" y2="69.0717" gradientUnits="userSpaceOnUse">
<stop offset="0.204805" stop-color="#217684"/>
<stop offset="0.549593" stop-color="#56D3DB"/>
</linearGradient>
<radialGradient id="paint1_radial_952_1435" cx="0" cy="0" r="1" gradientUnits="userSpaceOnUse" gradientTransform="translate(189.244 52.727) rotate(113.427) scale(195.748 195.748)">
<stop stop-color="#38C3EE"/>
<stop offset="0.450649" stop-color="#69F1F6"/>
<stop offset="0.932699" stop-color="#207D8B"/>
</radialGradient>
</defs>
</svg>
