<svg width="175" height="28" viewBox="0 0 175 28" fill="none" xmlns="http://www.w3.org/2000/svg">
<ellipse cx="14" cy="19.1129" rx="11.9" ry="4.65652" fill="#D9D9D9"/>
<ellipse cx="14" cy="19.1129" rx="11.9" ry="4.65652" fill="url(#paint0_linear_917_36)"/>
<g opacity="0.6">
<ellipse cx="14" cy="14" rx="11.9" ry="4.65652" fill="#D9D9D9"/>
<ellipse cx="14" cy="14" rx="11.9" ry="4.65652" fill="url(#paint1_linear_917_36)"/>
</g>
<g opacity="0.75">
<ellipse cx="14" cy="8.88699" rx="11.9" ry="4.65652" fill="url(#paint2_linear_917_36)"/>
<ellipse cx="14" cy="8.88699" rx="11.9" ry="4.65652" fill="url(#paint3_linear_917_36)"/>
<ellipse cx="14" cy="8.88699" rx="11.9" ry="4.65652" fill="url(#paint4_linear_917_36)"/>
</g>
<path d="M32.8944 13.718C32.8944 12.494 33.1764 11.396 33.7404 10.424C34.3164 9.452 35.0904 8.696 36.0624 8.156C37.0464 7.604 38.1204 7.328 39.2844 7.328C40.6164 7.328 41.7984 7.658 42.8304 8.318C43.8744 8.966 44.6304 9.89 45.0984 11.09H42.6324C42.3084 10.43 41.8584 9.938 41.2824 9.614C40.7064 9.29 40.0404 9.128 39.2844 9.128C38.4564 9.128 37.7184 9.314 37.0704 9.686C36.4224 10.058 35.9124 10.592 35.5404 11.288C35.1804 11.984 35.0004 12.794 35.0004 13.718C35.0004 14.642 35.1804 15.452 35.5404 16.148C35.9124 16.844 36.4224 17.384 37.0704 17.768C37.7184 18.14 38.4564 18.326 39.2844 18.326C40.0404 18.326 40.7064 18.164 41.2824 17.84C41.8584 17.516 42.3084 17.024 42.6324 16.364H45.0984C44.6304 17.564 43.8744 18.488 42.8304 19.136C41.7984 19.784 40.6164 20.108 39.2844 20.108C38.1084 20.108 37.0344 19.838 36.0624 19.298C35.0904 18.746 34.3164 17.984 33.7404 17.012C33.1764 16.04 32.8944 14.942 32.8944 13.718ZM56.6083 10.082L50.5243 24.662H48.4003L50.4163 19.838L46.5103 10.082H48.7963L51.5863 17.642L54.4843 10.082H56.6083ZM60.3888 11.558C60.7368 11.078 61.2108 10.688 61.8108 10.388C62.4228 10.076 63.1008 9.92 63.8448 9.92C64.7208 9.92 65.5128 10.13 66.2208 10.55C66.9288 10.97 67.4868 11.57 67.8948 12.35C68.3028 13.118 68.5068 14 68.5068 14.996C68.5068 15.992 68.3028 16.886 67.8948 17.678C67.4868 18.458 66.9228 19.07 66.2028 19.514C65.4948 19.946 64.7088 20.162 63.8448 20.162C63.0768 20.162 62.3928 20.012 61.7928 19.712C61.2048 19.412 60.7368 19.028 60.3888 18.56V20H58.3368V6.68H60.3888V11.558ZM66.4188 14.996C66.4188 14.312 66.2748 13.724 65.9868 13.232C65.7108 12.728 65.3388 12.35 64.8708 12.098C64.4148 11.834 63.9228 11.702 63.3948 11.702C62.8788 11.702 62.3868 11.834 61.9188 12.098C61.4628 12.362 61.0908 12.746 60.8028 13.25C60.5268 13.754 60.3888 14.348 60.3888 15.032C60.3888 15.716 60.5268 16.316 60.8028 16.832C61.0908 17.336 61.4628 17.72 61.9188 17.984C62.3868 18.248 62.8788 18.38 63.3948 18.38C63.9228 18.38 64.4148 18.248 64.8708 17.984C65.3388 17.708 65.7108 17.312 65.9868 16.796C66.2748 16.28 66.4188 15.68 66.4188 14.996ZM75.0181 20.162C74.0821 20.162 73.2361 19.952 72.4801 19.532C71.7241 19.1 71.1301 18.5 70.6981 17.732C70.2661 16.952 70.0501 16.052 70.0501 15.032C70.0501 14.024 70.2721 13.13 70.7161 12.35C71.1601 11.57 71.7661 10.97 72.5341 10.55C73.3021 10.13 74.1601 9.92 75.1081 9.92C76.0561 9.92 76.9141 10.13 77.6821 10.55C78.4501 10.97 79.0561 11.57 79.5001 12.35C79.9441 13.13 80.1661 14.024 80.1661 15.032C80.1661 16.04 79.9381 16.934 79.4821 17.714C79.0261 18.494 78.4021 19.1 77.6101 19.532C76.8301 19.952 75.9661 20.162 75.0181 20.162ZM75.0181 18.38C75.5461 18.38 76.0381 18.254 76.4941 18.002C76.9621 17.75 77.3401 17.372 77.6281 16.868C77.9161 16.364 78.0601 15.752 78.0601 15.032C78.0601 14.312 77.9221 13.706 77.6461 13.214C77.3701 12.71 77.0041 12.332 76.5481 12.08C76.0921 11.828 75.6001 11.702 75.0721 11.702C74.5441 11.702 74.0521 11.828 73.5961 12.08C73.1521 12.332 72.7981 12.71 72.5341 13.214C72.2701 13.706 72.1381 14.312 72.1381 15.032C72.1381 16.1 72.4081 16.928 72.9481 17.516C73.5001 18.092 74.1901 18.38 75.0181 18.38ZM84.4266 11.522C84.7266 11.018 85.1226 10.628 85.6146 10.352C86.1186 10.064 86.7126 9.92 87.3966 9.92V12.044H86.8746C86.0706 12.044 85.4586 12.248 85.0386 12.656C84.6306 13.064 84.4266 13.772 84.4266 14.78V20H82.3746V10.082H84.4266V11.522ZM93.4588 9.92C94.2268 9.92 94.9048 10.076 95.4928 10.388C96.0928 10.688 96.5608 11.066 96.8968 11.522V10.082H98.9668V20.162C98.9668 21.074 98.7748 21.884 98.3908 22.592C98.0068 23.312 97.4488 23.876 96.7168 24.284C95.9968 24.692 95.1328 24.896 94.1248 24.896C92.7808 24.896 91.6648 24.578 90.7768 23.942C89.8888 23.318 89.3848 22.466 89.2648 21.386H91.2988C91.4548 21.902 91.7848 22.316 92.2888 22.628C92.8048 22.952 93.4168 23.114 94.1248 23.114C94.9528 23.114 95.6188 22.862 96.1228 22.358C96.6388 21.854 96.8968 21.122 96.8968 20.162V18.506C96.5488 18.974 96.0748 19.37 95.4748 19.694C94.8868 20.006 94.2148 20.162 93.4588 20.162C92.5948 20.162 91.8028 19.946 91.0828 19.514C90.3748 19.07 89.8108 18.458 89.3908 17.678C88.9828 16.886 88.7788 15.992 88.7788 14.996C88.7788 14 88.9828 13.118 89.3908 12.35C89.8108 11.582 90.3748 10.988 91.0828 10.568C91.8028 10.136 92.5948 9.92 93.4588 9.92ZM96.8968 15.032C96.8968 14.348 96.7528 13.754 96.4648 13.25C96.1888 12.746 95.8228 12.362 95.3668 12.098C94.9108 11.834 94.4188 11.702 93.8908 11.702C93.3628 11.702 92.8708 11.834 92.4148 12.098C91.9588 12.35 91.5868 12.728 91.2988 13.232C91.0228 13.724 90.8848 14.312 90.8848 14.996C90.8848 15.68 91.0228 16.28 91.2988 16.796C91.5868 17.312 91.9588 17.708 92.4148 17.984C92.8828 18.248 93.3748 18.38 93.8908 18.38C94.4188 18.38 94.9108 18.248 95.3668 17.984C95.8228 17.72 96.1888 17.336 96.4648 16.832C96.7528 16.316 96.8968 15.716 96.8968 15.032ZM105.928 7.49C107.26 7.49 108.424 7.748 109.42 8.264C110.428 8.768 111.202 9.5 111.742 10.46C112.294 11.408 112.57 12.518 112.57 13.79C112.57 15.062 112.294 16.166 111.742 17.102C111.202 18.038 110.428 18.758 109.42 19.262C108.424 19.754 107.26 20 105.928 20H101.842V7.49H105.928ZM105.928 18.326C107.392 18.326 108.514 17.93 109.294 17.138C110.074 16.346 110.464 15.23 110.464 13.79C110.464 12.338 110.074 11.204 109.294 10.388C108.514 9.572 107.392 9.164 105.928 9.164H103.894V18.326H105.928ZM121.48 13.574C122.152 13.694 122.722 14.048 123.19 14.636C123.658 15.224 123.892 15.89 123.892 16.634C123.892 17.27 123.724 17.846 123.388 18.362C123.064 18.866 122.59 19.268 121.966 19.568C121.342 19.856 120.616 20 119.788 20H114.784V7.49H119.554C120.406 7.49 121.138 7.634 121.75 7.922C122.362 8.21 122.824 8.6 123.136 9.092C123.448 9.572 123.604 10.112 123.604 10.712C123.604 11.432 123.412 12.032 123.028 12.512C122.644 12.992 122.128 13.346 121.48 13.574ZM116.836 12.746H119.374C120.046 12.746 120.568 12.596 120.94 12.296C121.324 11.984 121.516 11.54 121.516 10.964C121.516 10.4 121.324 9.962 120.94 9.65C120.568 9.326 120.046 9.164 119.374 9.164H116.836V12.746ZM119.608 18.326C120.304 18.326 120.85 18.158 121.246 17.822C121.642 17.486 121.84 17.018 121.84 16.418C121.84 15.806 121.63 15.32 121.21 14.96C120.79 14.6 120.232 14.42 119.536 14.42H116.836V18.326H119.608Z" fill="#272D3F"/>
<path d="M134.66 7.418C136.052 7.418 137.246 7.67 138.242 8.174C139.238 8.678 140 9.404 140.528 10.352C141.056 11.3 141.32 12.428 141.32 13.736C141.32 15.032 141.056 16.154 140.528 17.102C140 18.038 139.238 18.758 138.242 19.262C137.246 19.754 136.052 20 134.66 20H130.934V7.418H134.66ZM134.66 18.956C136.412 18.956 137.744 18.5 138.656 17.588C139.58 16.664 140.042 15.38 140.042 13.736C140.042 12.08 139.58 10.79 138.656 9.866C137.744 8.93 136.412 8.462 134.66 8.462H132.194V18.956H134.66ZM148.125 20.144C147.201 20.144 146.367 19.94 145.623 19.532C144.891 19.112 144.309 18.524 143.877 17.768C143.457 17 143.247 16.106 143.247 15.086C143.247 14.066 143.463 13.178 143.895 12.422C144.327 11.654 144.915 11.066 145.659 10.658C146.403 10.238 147.237 10.028 148.161 10.028C149.085 10.028 149.919 10.238 150.663 10.658C151.419 11.066 152.007 11.654 152.427 12.422C152.859 13.178 153.075 14.066 153.075 15.086C153.075 16.094 152.859 16.982 152.427 17.75C151.995 18.518 151.401 19.112 150.645 19.532C149.889 19.94 149.049 20.144 148.125 20.144ZM148.125 19.046C148.773 19.046 149.373 18.902 149.925 18.614C150.477 18.314 150.921 17.87 151.257 17.282C151.605 16.682 151.779 15.95 151.779 15.086C151.779 14.222 151.611 13.496 151.275 12.908C150.939 12.308 150.495 11.864 149.943 11.576C149.391 11.276 148.791 11.126 148.143 11.126C147.495 11.126 146.895 11.276 146.343 11.576C145.791 11.864 145.347 12.308 145.011 12.908C144.687 13.496 144.525 14.222 144.525 15.086C144.525 15.95 144.687 16.682 145.011 17.282C145.347 17.87 145.785 18.314 146.325 18.614C146.877 18.902 147.477 19.046 148.125 19.046ZM154.975 15.086C154.975 14.066 155.179 13.178 155.587 12.422C155.995 11.654 156.559 11.066 157.279 10.658C157.999 10.238 158.821 10.028 159.745 10.028C160.957 10.028 161.953 10.328 162.733 10.928C163.525 11.528 164.035 12.344 164.263 13.376H162.913C162.745 12.668 162.379 12.116 161.815 11.72C161.263 11.312 160.573 11.108 159.745 11.108C159.085 11.108 158.491 11.258 157.963 11.558C157.435 11.858 157.015 12.308 156.703 12.908C156.403 13.496 156.253 14.222 156.253 15.086C156.253 15.95 156.403 16.682 156.703 17.282C157.015 17.882 157.435 18.332 157.963 18.632C158.491 18.932 159.085 19.082 159.745 19.082C160.573 19.082 161.263 18.884 161.815 18.488C162.379 18.08 162.745 17.516 162.913 16.796H164.263C164.035 17.804 163.525 18.614 162.733 19.226C161.941 19.838 160.945 20.144 159.745 20.144C158.821 20.144 157.999 19.94 157.279 19.532C156.559 19.112 155.995 18.524 155.587 17.768C155.179 17 154.975 16.106 154.975 15.086ZM170.155 20.144C169.027 20.144 168.103 19.886 167.383 19.37C166.675 18.842 166.279 18.128 166.195 17.228H167.491C167.551 17.78 167.809 18.23 168.265 18.578C168.733 18.914 169.357 19.082 170.137 19.082C170.821 19.082 171.355 18.92 171.739 18.596C172.135 18.272 172.333 17.87 172.333 17.39C172.333 17.054 172.225 16.778 172.009 16.562C171.793 16.346 171.517 16.178 171.181 16.058C170.857 15.926 170.413 15.788 169.849 15.644C169.117 15.452 168.523 15.26 168.067 15.068C167.611 14.876 167.221 14.594 166.897 14.222C166.585 13.838 166.429 13.328 166.429 12.692C166.429 12.212 166.573 11.768 166.861 11.36C167.149 10.952 167.557 10.628 168.085 10.388C168.613 10.148 169.213 10.028 169.885 10.028C170.941 10.028 171.793 10.298 172.441 10.838C173.089 11.366 173.437 12.098 173.485 13.034H172.225C172.189 12.458 171.961 11.996 171.541 11.648C171.133 11.288 170.569 11.108 169.849 11.108C169.213 11.108 168.697 11.258 168.301 11.558C167.905 11.858 167.707 12.23 167.707 12.674C167.707 13.058 167.821 13.376 168.049 13.628C168.289 13.868 168.583 14.06 168.931 14.204C169.279 14.336 169.747 14.486 170.335 14.654C171.043 14.846 171.607 15.032 172.027 15.212C172.447 15.392 172.807 15.656 173.107 16.004C173.407 16.352 173.563 16.814 173.575 17.39C173.575 17.918 173.431 18.392 173.143 18.812C172.855 19.22 172.453 19.544 171.937 19.784C171.421 20.024 170.827 20.144 170.155 20.144Z" fill="#272D3F"/>
<defs>
<linearGradient id="paint0_linear_917_36" x1="1.86488" y1="15.2496" x2="7.71316" y2="30.1882" gradientUnits="userSpaceOnUse">
<stop stop-color="#272D3F"/>
<stop offset="1" stop-color="#20C4D1"/>
</linearGradient>
<linearGradient id="paint1_linear_917_36" x1="3.09233" y1="11.9885" x2="7.56703" y2="22.7296" gradientUnits="userSpaceOnUse">
<stop offset="0.02" stop-color="#12EDF4"/>
<stop offset="1" stop-color="#1C91A6"/>
</linearGradient>
<linearGradient id="paint2_linear_917_36" x1="-9.77892" y1="-0.914981" x2="1.25368" y2="26.3378" gradientUnits="userSpaceOnUse">
<stop offset="0.3" stop-color="#10A3AE"/>
<stop offset="0.46" stop-color="#01B3BF"/>
<stop offset="0.65" stop-color="#5DC3CA"/>
<stop offset="0.86" stop-color="#75D9DE"/>
<stop offset="1" stop-color="#00F8FF"/>
</linearGradient>
<linearGradient id="paint3_linear_917_36" x1="-6.34085" y1="3.02523" x2="3.46831" y2="30.5494" gradientUnits="userSpaceOnUse">
<stop offset="0.02" stop-color="#32F9FF"/>
<stop offset="0.18" stop-color="#52E4EC"/>
<stop offset="0.51" stop-color="#50BCCF"/>
<stop offset="0.86" stop-color="#314656"/>
</linearGradient>
<linearGradient id="paint4_linear_917_36" x1="3.09233" y1="6.87547" x2="7.56703" y2="17.6165" gradientUnits="userSpaceOnUse">
<stop offset="0.02" stop-color="#32F9FF"/>
<stop offset="0.495781" stop-color="#52E4EC"/>
<stop offset="1" stop-color="#50BCCF"/>
</linearGradient>
</defs>
</svg>
