<svg xmlns="http://www.w3.org/2000/svg"  viewBox="0 0 1024 195" fill="none"><path fill="url(#a)" d="M174.3 156.4a97 97 0 0 0-1.2-120L97 97.3z"/><path fill="#fff" d="M46.8 14.1a97.2 97.2 0 1 0 117.7 13l-32.2 33.6a50.6 50.6 0 1 1-61.4-6.8zM296.8 157.1a52.5 52.5 0 0 1-48.9-29 73 73 0 0 1-7.2-33.8q0-20 7.3-34a53 53 0 0 1 48.8-29q10.1 0 19 2.8 8.8 2.9 15.8 8.5t11.2 13.6q4.5 8 5.9 18.1h-22.4a27 27 0 0 0-18.6-21.6q-4.8-1.5-10.5-1.6a32 32 0 0 0-17.7 5 33 33 0 0 0-12.1 14.7q-4.4 9.6-4.4 23.5a57 57 0 0 0 4.4 23.6q4.5 9.5 12 14.4 7.8 5 17.8 5 5.4 0 10.2-1.5t8.7-4.4q4-3 6.5-7 2.6-4.2 3.7-9.7h22.4a49 49 0 0 1-32 39.1q-9 3.3-19.9 3.3M378 190a39 39 0 0 1-14.2-2.3l5-16.8 1.1.3a20 20 0 0 0 11.2.3q4.7-1.5 7.5-9l1.8-5-33.2-94h23l21 69.6h1l21.3-69.5h23.1l-36.8 103q-2.6 7.4-6.8 12.6a27 27 0 0 1-10.4 8q-6.1 2.8-14.6 2.8M505.8 157a29 29 0 0 1-13-2.6 28 28 0 0 1-13.2-13.6h-1.3v14.6H457V32.9h21.7v45.8h.9q1.5-3.3 4.7-7a25 25 0 0 1 8.2-6.7q5.3-2.7 13.4-2.7a35 35 0 0 1 32.8 21.4q5 10.5 5 26 0 15-4.9 25.7t-13.6 16.2a35 35 0 0 1-19.4 5.5m-5.9-17.8q7.2 0 12-3.8 4.8-3.9 7.3-10.6 2.4-6.7 2.4-15.3 0-8.5-2.4-15.3-2.5-6.6-7.3-10.4a19 19 0 0 0-12-3.8q-7 0-11.8 3.6a23 23 0 0 0-7.4 10.3 44 44 0 0 0-2.4 15.6q0 8.8 2.4 15.6 2.6 6.7 7.4 10.4 5 3.7 11.8 3.7m97.6 18q-13.5 0-23.3-6a40 40 0 0 1-15.3-16.6 55 55 0 0 1-5.4-24.8 55 55 0 0 1 5.4-25 40 40 0 0 1 15.3-16.6q9.8-6 23.3-6t23.4 6A40 40 0 0 1 636.2 85a54 54 0 0 1 5.4 24.9q0 14.1-5.4 24.8a40 40 0 0 1-15.3 16.7q-9.9 6-23.4 5.9m0-17.5q7.5 0 12.4-4A24 24 0 0 0 617 125q2.5-6.8 2.5-15.1 0-8.5-2.5-15.3-2.4-6.9-7.2-10.8-5-4-12.4-4t-12.2 4a24 24 0 0 0-7.4 10.8 46 46 0 0 0-2.4 15.3q0 8.3 2.4 15.1 2.3 6.9 7.4 10.9a19 19 0 0 0 12.2 4m57.8 15.7v-92h21v15.4h1q2.4-8 8.6-12.3t14-4.4a54 54 0 0 1 7.8.6v20q-1.4-.6-4.4-.9l-5.7-.3q-6 0-10.7 2.5t-7.4 7a20 20 0 0 0-2.6 10.4v54zm98.2 36.3A48 48 0 0 1 726 185q-10-6.8-13-16.4l19.5-4.7a21 21 0 0 0 10.7 9.8q4.2 1.8 10.7 1.8 9.3 0 15.3-4.6t6-14.5V139H774q-1.5 3.3-4.7 6.8t-8.5 6a32 32 0 0 1-13.2 2.4q-10.5 0-19.2-5a36 36 0 0 1-13.6-15q-5-10-5-25t5-25.6q5.1-10.5 13.7-15.8a35 35 0 0 1 19.3-5.5q8 0 13.3 2.7t8.4 6.6a42 42 0 0 1 4.9 7.1h1.1V63.5h21.2V157q-.1 11.7-5.6 19.5-5.7 7.7-15.4 11.5a60 60 0 0 1-22.2 3.8m.2-54.7q10.4 0 16-7.4t5.6-20.6q0-8.8-2.4-15.3a22 22 0 0 0-7.3-10 19 19 0 0 0-11.9-3.7 19 19 0 0 0-12 3.8 23 23 0 0 0-7.4 10.4 43 43 0 0 0-2.4 14.8q0 8.4 2.5 14.7 2.4 6.3 7.3 9.9 5 3.4 12 3.4m103.1 18.4h-31v-19.3h29.9q12.8 0 21.3-4.6 8.6-4.7 13-14 4.3-9.4 4.3-23.5a56 56 0 0 0-4.3-23.4 29 29 0 0 0-12.7-13.9 43 43 0 0 0-21-4.7H825V33h32.5q18.3 0 31.3 7.3a49 49 0 0 1 20.3 21 71 71 0 0 1 7 32.9q0 19-7 32.9a50 50 0 0 1-20.4 21.1 65 65 0 0 1-32 7.4M837.4 32.9v122.6h-22.2V32.9zm95.2 122.6V32.9h47q13.3 0 22.1 4.2a29 29 0 0 1 17.5 27.5q0 7.5-2.9 12.9a24 24 0 0 1-7.6 8.5 34 34 0 0 1-10.9 4.8V92a27.7 27.7 0 0 1 22.3 14.2q3.9 6.6 3.9 15.9 0 9.5-4.6 17t-13.8 12q-9.3 4.5-23.3 4.4zm22.2-18.5h23.9q12 0 17.4-4.7a15 15 0 0 0 5.4-12 18 18 0 0 0-10.4-16.7 25 25 0 0 0-11.7-2.6h-24.6zm0-52h22q5.7 0 10.3-2.1t7.3-6a16 16 0 0 0 2.7-9.3q0-7-5-11.7t-14.8-4.7h-22.5z"/><path fill="url(#b)" d="M174.1 37.8a97.2 97.2 0 1 0 .2 118.5l-37-28.3a50.6 50.6 0 1 1 0-61.7z"/><path fill="#fff" d="M296.8 157.1a52.5 52.5 0 0 1-48.9-29 73 73 0 0 1-7.2-33.8q0-20 7.3-34a53 53 0 0 1 48.8-29q10.1 0 19 2.8 8.8 2.9 15.8 8.5t11.2 13.6q4.5 8 5.9 18.1h-22.4a27 27 0 0 0-18.6-21.6q-4.8-1.5-10.5-1.6a32 32 0 0 0-17.7 5 33 33 0 0 0-12.1 14.7q-4.4 9.6-4.4 23.5a57 57 0 0 0 4.4 23.6q4.5 9.5 12 14.4 7.8 5 17.8 5 5.4 0 10.2-1.5t8.7-4.4q4-3 6.5-7 2.6-4.2 3.7-9.7h22.4a49 49 0 0 1-32 39.1q-9 3.3-19.9 3.3M378 190a39 39 0 0 1-14.2-2.3l5-16.8 1.1.3a20 20 0 0 0 11.2.3q4.7-1.5 7.5-9l1.8-5-33.2-94h23l21 69.6h1l21.3-69.5h23.1l-36.8 103q-2.6 7.4-6.8 12.6a27 27 0 0 1-10.4 8q-6.1 2.8-14.6 2.8M505.8 157a29 29 0 0 1-13-2.6 28 28 0 0 1-13.2-13.6h-1.3v14.6H457V32.9h21.7v45.8h.9q1.5-3.3 4.7-7a25 25 0 0 1 8.2-6.7q5.3-2.7 13.4-2.7a35 35 0 0 1 32.8 21.4q5 10.5 5 26 0 15-4.9 25.7t-13.6 16.2a35 35 0 0 1-19.4 5.5m-5.9-17.8q7.2 0 12-3.8 4.8-3.9 7.3-10.6 2.4-6.7 2.4-15.3 0-8.5-2.4-15.3-2.5-6.6-7.3-10.4a19 19 0 0 0-12-3.8q-7 0-11.8 3.6a23 23 0 0 0-7.4 10.3 44 44 0 0 0-2.4 15.6q0 8.8 2.4 15.6 2.6 6.7 7.4 10.4 5 3.7 11.8 3.7m97.6 18q-13.5 0-23.3-6a40 40 0 0 1-15.3-16.6 55 55 0 0 1-5.4-24.8 55 55 0 0 1 5.4-25 40 40 0 0 1 15.3-16.6q9.8-6 23.3-6t23.4 6A40 40 0 0 1 636.2 85a54 54 0 0 1 5.4 24.9q0 14.1-5.4 24.8a40 40 0 0 1-15.3 16.7q-9.9 6-23.4 5.9m0-17.5q7.5 0 12.4-4A24 24 0 0 0 617 125q2.5-6.8 2.5-15.1 0-8.5-2.5-15.3-2.4-6.9-7.2-10.8-5-4-12.4-4t-12.2 4a24 24 0 0 0-7.4 10.8 46 46 0 0 0-2.4 15.3q0 8.3 2.4 15.1 2.3 6.9 7.4 10.9a19 19 0 0 0 12.2 4m57.8 15.7v-92h21v15.4h1q2.4-8 8.6-12.3t14-4.4a54 54 0 0 1 7.8.6v20q-1.4-.6-4.4-.9l-5.7-.3q-6 0-10.7 2.5t-7.4 7a20 20 0 0 0-2.6 10.4v54zm98.2 36.3A48 48 0 0 1 726 185q-10-6.8-13-16.4l19.5-4.7a21 21 0 0 0 10.7 9.8q4.2 1.8 10.7 1.8 9.3 0 15.3-4.6t6-14.5V139H774q-1.5 3.3-4.7 6.8t-8.5 6a32 32 0 0 1-13.2 2.4q-10.5 0-19.2-5a36 36 0 0 1-13.6-15q-5-10-5-25t5-25.6q5.1-10.5 13.7-15.8a35 35 0 0 1 19.3-5.5q8 0 13.3 2.7t8.4 6.6a42 42 0 0 1 4.9 7.1h1.1V63.5h21.2V157q-.1 11.7-5.6 19.5-5.7 7.7-15.4 11.5a60 60 0 0 1-22.2 3.8m.2-54.7q10.4 0 16-7.4t5.6-20.6q0-8.8-2.4-15.3a22 22 0 0 0-7.3-10 19 19 0 0 0-11.9-3.7 19 19 0 0 0-12 3.8 23 23 0 0 0-7.4 10.4 43 43 0 0 0-2.4 14.8q0 8.4 2.5 14.7 2.4 6.3 7.3 9.9 5 3.4 12 3.4m103.1 18.4h-31v-19.3h29.9q12.8 0 21.3-4.6 8.6-4.7 13-14 4.3-9.4 4.3-23.5a56 56 0 0 0-4.3-23.4 29 29 0 0 0-12.7-13.9 43 43 0 0 0-21-4.7H825V33h32.5q18.3 0 31.3 7.3a49 49 0 0 1 20.3 21 71 71 0 0 1 7 32.9q0 19-7 32.9a50 50 0 0 1-20.4 21.1 65 65 0 0 1-32 7.4M837.4 32.9v122.6h-22.2V32.9zm95.2 122.6V32.9h47q13.3 0 22.1 4.2a29 29 0 0 1 17.5 27.5q0 7.5-2.9 12.9a24 24 0 0 1-7.6 8.5 34 34 0 0 1-10.9 4.8V92a27.7 27.7 0 0 1 22.3 14.2q3.9 6.6 3.9 15.9 0 9.5-4.6 17t-13.8 12q-9.3 4.5-23.3 4.4zm22.2-18.5h23.9q12 0 17.4-4.7a15 15 0 0 0 5.4-12 18 18 0 0 0-10.4-16.7 25 25 0 0 0-11.7-2.6h-24.6zm0-52h22q5.7 0 10.3-2.1t7.3-6a16 16 0 0 0 2.7-9.3q0-7-5-11.7t-14.8-4.7h-22.5z"/><defs><radialGradient id="b" cx="0" cy="0" r="1" gradientTransform="rotate(113.4 108.6 124.3)scale(274.891)" gradientUnits="userSpaceOnUse"><stop stop-color="#38c3ee"/><stop offset=".5" stop-color="#69f1f6"/><stop offset=".9" stop-color="#207d8b"/></radialGradient><linearGradient id="a" x1="194.8" x2="-.4" y1="97.4" y2="97" gradientUnits="userSpaceOnUse"><stop offset=".2" stop-color="#217684"/><stop offset=".5" stop-color="#56d3db"/></linearGradient></defs></svg>