<svg width="139" height="139" viewBox="0 0 139 139" fill="none" xmlns="http://www.w3.org/2000/svg">
<path d="M124.099 111.371C133.531 99.0909 138.573 84.0031 138.418 68.5198C138.263 53.0365 132.921 38.0523 123.245 25.9635L69.2109 69.2117L124.099 111.371Z" fill="url(#paint0_linear_956_14)"/>
<path d="M33.3111 10.0386C20.9525 17.5366 11.2517 28.7161 5.57023 42.0081C-0.111235 55.3 -1.4883 70.0373 1.63232 84.1518C4.75293 98.266 12.2146 111.049 22.9701 120.707C33.7257 130.365 47.2353 136.413 61.603 138.002C75.9707 139.591 90.4753 136.641 103.081 129.567C115.687 122.493 125.762 111.649 131.892 98.558C138.021 85.4663 139.898 70.7842 137.258 56.572C134.618 42.3597 127.595 29.3307 117.173 19.3133L94.1959 43.2179C99.6239 48.4362 103.283 55.2233 104.658 62.6268C106.033 70.0303 105.056 77.6785 101.863 84.4982C98.6699 91.3178 93.4219 96.967 86.8548 100.652C80.288 104.337 72.7322 105.873 65.2478 105.045C57.7633 104.218 50.7258 101.067 45.123 96.036C39.5202 91.0053 35.6332 84.3463 34.0076 76.9938C32.382 69.6412 33.0994 61.9642 36.059 55.0401C39.0186 48.116 44.072 42.2924 50.5099 38.3865L33.3111 10.0386Z" fill="white"/>
<path d="M124.008 26.9334C115.178 15.4885 102.986 7.09553 89.1432 2.93243C75.3004 -1.23071 60.5014 -0.95502 46.8233 3.72083C33.1451 8.39663 21.2742 17.2378 12.8766 29.0037C4.47904 40.7696 -0.0237657 54.8695 9.4336e-05 69.3248C0.0239543 83.7801 4.57333 97.8649 13.0097 109.603C21.446 121.341 33.346 130.143 47.0396 134.774C60.7331 139.405 75.5329 139.632 89.3619 135.423C103.191 131.214 115.355 122.781 124.147 111.307L97.8279 91.1394C93.2479 97.1169 86.9117 101.51 79.7079 103.702C72.504 105.895 64.7945 105.776 57.6612 103.364C50.5279 100.952 44.3289 96.3669 39.9342 90.252C35.5395 84.1374 33.1696 76.8002 33.1572 69.2701C33.1448 61.74 35.4904 54.395 39.8649 48.2659C44.2394 42.1367 50.4232 37.5311 57.5485 35.0954C64.6738 32.6597 72.3829 32.5161 79.5939 34.6847C86.805 36.8534 93.1559 41.2255 97.7559 47.1874L124.008 26.9334Z" fill="url(#paint1_radial_956_14)"/>
<defs>
<linearGradient id="paint0_linear_956_14" x1="138.695" y1="69.3518" x2="-0.272874" y2="69.0716" gradientUnits="userSpaceOnUse">
<stop offset="0.204805" stop-color="#217684"/>
<stop offset="0.549593" stop-color="#56D3DB"/>
</linearGradient>
<radialGradient id="paint1_radial_956_14" cx="0" cy="0" r="1" gradientUnits="userSpaceOnUse" gradientTransform="translate(189.244 52.727) rotate(113.427) scale(195.748 195.748)">
<stop stop-color="#38C3EE"/>
<stop offset="0.450649" stop-color="#69F1F6"/>
<stop offset="0.932699" stop-color="#207D8B"/>
</radialGradient>
</defs>
</svg>
